<?xml version="1.0" encoding="UTF-8" standalone="no"?>
<svg width="22px" height="22px" viewBox="0 0 22 22" version="1.1" xmlns="http://www.w3.org/2000/svg" xmlns:xlink="http://www.w3.org/1999/xlink">
    <!-- Generator: Sketch 3.8.3 (29802) - http://www.bohemiancoding.com/sketch -->
    <title>noun_467225_cc</title>
    <desc>Created with Sketch.</desc>
    <defs></defs>
    <g id="Page-1" stroke="none" stroke-width="1" fill="none" fill-rule="evenodd">
        <g id="Desktop" transform="translate(-965.000000, -40.000000)">
            <g id="noun_467225_cc" transform="translate(965.000000, 40.000000)">
                <path d="M14.74,6.38 L14.74,4.675 L12.43,4.675 C11.22,4.675 10.23,5.72 10.23,6.985 L10.23,9.185 L7.975,9.185 L7.975,10.78 L10.23,10.78 L10.23,17.16 L12.155,17.16 L12.155,10.78 L14.74,10.78 L14.74,9.185 L12.155,9.185 L12.155,7.315 C12.155,6.82 12.54,6.38 12.98,6.38 L14.74,6.38 L14.74,6.38 Z" id="Shape"></path>
                <path d="M17.82,0.11 L4.62,0.11 C2.365,0.11 0.495,1.98 0.495,4.235 L0.495,17.435 C0.495,19.69 2.365,21.56 4.62,21.56 L17.82,21.56 C20.075,21.56 21.945,19.69 21.945,17.435 L21.945,4.235 C21.945,1.98 20.13,0.11 17.82,0.11 L17.82,0.11 Z M12.155,7.315 L12.155,9.185 L14.74,9.185 L14.74,10.78 L12.155,10.78 L12.155,17.16 L10.23,17.16 L10.23,10.78 L7.975,10.78 L7.975,9.185 L10.23,9.185 L10.23,6.985 C10.23,5.72 11.22,4.675 12.43,4.675 L14.74,4.675 L14.74,6.38 L12.98,6.38 C12.54,6.38 12.155,6.82 12.155,7.315 L12.155,7.315 Z" id="Shape" fill="#FFFFFF"></path>
            </g>
        </g>
    </g>
</svg>