<?xml version="1.0" encoding="UTF-8" standalone="no"?>
<svg width="22px" height="22px" viewBox="0 0 22 22" version="1.1" xmlns="http://www.w3.org/2000/svg" xmlns:xlink="http://www.w3.org/1999/xlink">
    <!-- Generator: Sketch 3.8.3 (29802) - http://www.bohemiancoding.com/sketch -->
    <title>noun_40714_cc</title>
    <desc>Created with Sketch.</desc>
    <defs></defs>
    <g id="Page-1" stroke="none" stroke-width="1" fill="none" fill-rule="evenodd">
        <g id="Desktop" transform="translate(-965.000000, -109.000000)" fill="#FFFFFF">
            <g id="noun_40714_cc" transform="translate(965.000000, 109.000000)">
                <path d="M4.8202,7.6197 C5.97905,5.4186 8.2885,3.913525 10.944175,3.913525 C13.59985,3.913525 15.9093,5.4186 17.06815,7.6197 L21.816575,7.6197 L21.816575,3.9017 C21.816575,1.848275 20.152,0.183425 18.0983,0.183425 L5.92955,0.183425 L5.92955,4.915625 L5.42245,4.915625 L5.42245,0.183425 L5.253325,0.183425 L5.253325,4.915625 L4.7465,4.915625 L4.7465,0.183425 L4.577375,0.183425 L4.577375,4.915625 L4.070275,4.915625 L4.070275,0.183425 L3.90115,0.183425 L3.90115,4.915625 L3.39405,4.915625 L3.39405,0.218625 C1.580425,0.466125 0.182875,2.02015 0.182875,3.901425 L0.182875,7.6197 L4.8202,7.6197 L4.8202,7.6197 Z M16.2393,2.50195 C16.2393,2.0614 16.59625,1.70445 17.0368,1.70445 L18.8221,1.70445 C19.26265,1.70445 19.6196,2.0614 19.6196,2.50195 L19.6196,4.28725 C19.6196,4.7278 19.26265,5.08475 18.8221,5.08475 L17.0368,5.08475 C16.59625,5.08475 16.2393,4.7278 16.2393,4.28725 L16.2393,2.50195 L16.2393,2.50195 Z" id="Shape"></path>
                <path d="M17.501825,8.6339 C17.733925,9.3247 17.861525,10.063075 17.861525,10.83115 C17.861525,14.6454 14.758425,17.7485 10.944175,17.7485 C7.129925,17.7485 4.026825,14.6454 4.026825,10.830875 C4.026825,10.0628 4.154425,9.324425 4.386525,8.633625 L0.183425,8.633625 L0.183425,18.0983 C0.183425,20.151725 1.848,21.816575 3.9017,21.816575 L18.098575,21.816575 C20.152,21.816575 21.81685,20.152 21.81685,18.0983 L21.81685,8.6339 L17.501825,8.6339 L17.501825,8.6339 Z" id="Shape"></path>
                <path d="M10.944175,15.440425 C13.4899592,15.440425 15.553725,13.3766592 15.553725,10.830875 C15.553725,8.28509083 13.4899592,6.221325 10.944175,6.221325 C8.39839083,6.221325 6.334625,8.28509083 6.334625,10.830875 C6.334625,13.3766592 8.39839083,15.440425 10.944175,15.440425 Z" id="Oval"></path>
            </g>
        </g>
    </g>
</svg>