<?xml version="1.0" encoding="UTF-8" standalone="no"?>
<svg width="22px" height="22px" viewBox="0 0 22 22" version="1.1" xmlns="http://www.w3.org/2000/svg" xmlns:xlink="http://www.w3.org/1999/xlink">
    <!-- Generator: Sketch 3.8.3 (29802) - http://www.bohemiancoding.com/sketch -->
    <title>vimeo2</title>
    <desc>Created with Sketch.</desc>
    <defs></defs>
    <g id="Page-1" stroke="none" stroke-width="1" fill="none" fill-rule="evenodd">
        <g id="Desktop" transform="translate(-965.000000, -146.000000)" fill="#FFFFFF">
            <g id="vimeo2" transform="translate(965.000000, 146.000000)">
                <path d="M19.9375,0 L2.0625,0 C0.928125,0 0,0.928125 0,2.0625 L0,19.9375 C0,21.071875 0.928125,22 2.0625,22 L19.9375,22 C21.071875,22 22,21.071875 22,19.9375 L22,2.0625 C22,0.928125 21.071875,0 19.9375,0 L19.9375,0 Z M18.511625,7.305375 C18.442875,8.85225 17.359375,10.971125 15.268,13.660625 C13.1065,16.471125 11.276375,17.876375 9.780375,17.876375 C8.85225,17.876375 8.069875,17.021125 7.4305,15.310625 C7.000125,13.74175 6.57525,12.17425 6.14625,10.605375 C5.67325,8.894875 5.16175,8.039625 4.61725,8.039625 C4.497625,8.039625 4.079625,8.2885 3.3715,8.787625 L2.6235,7.825125 C3.41,7.137625 4.18275,6.446 4.943125,5.7585 C5.99225,4.8565 6.77325,4.379375 7.297125,4.33125 C8.534625,4.211625 9.295,5.05725 9.582375,6.86675 C9.89175,8.822 10.10625,10.033375 10.22725,10.5105 C10.583375,12.13025 10.97525,12.93875 11.40425,12.93875 C11.735625,12.93875 12.2375,12.414875 12.904375,11.361625 C13.57125,10.308375 13.927375,9.5095 13.974125,8.9595 C14.069,8.053375 13.7115,7.596875 12.904375,7.596875 C12.522125,7.596875 12.13025,7.6835 11.727375,7.8595 C12.50975,5.303375 14.00025,4.05625 16.204375,4.1305 C17.837875,4.17725 18.6065,5.234625 18.511625,7.305375 L18.511625,7.305375 Z" id="Shape"></path>
            </g>
        </g>
    </g>
</svg>