<?xml version="1.0" encoding="UTF-8" standalone="no"?>
<svg width="23px" height="17px" viewBox="0 0 23 17" version="1.1" xmlns="http://www.w3.org/2000/svg" xmlns:xlink="http://www.w3.org/1999/xlink">
    <!-- Generator: Sketch 3.8.3 (29802) - http://www.bohemiancoding.com/sketch -->
    <title>noun_35023</title>
    <desc>Created with Sketch.</desc>
    <defs></defs>
    <g id="Page-1" stroke="none" stroke-width="1" fill="none" fill-rule="evenodd">
        <g id="Desktop" transform="translate(-964.000000, -77.000000)" fill="#FFFFFF">
            <g id="noun_35023" transform="translate(964.000000, 77.000000)">
                <path d="M22.5056237,2.81004973 C22.2281398,1.60919624 21.2417056,0.72419086 20.0547789,0.592018145 C17.2434153,0.279060484 14.3981546,0.0838232527 11.5649812,0.0853998656 C8.7318078,0.0838232527 5.88628427,0.279060484 3.07465793,0.592018145 C1.88773118,0.72419086 0.901822581,1.60919624 0.624601478,2.81004973 C0.230185484,4.51962366 0.225192876,6.38554503 0.225192876,8.1460961 C0.225192876,9.90638441 0.225192876,11.7723058 0.61987164,13.4821425 C0.897355511,14.6819449 1.88326411,15.5680013 3.07019086,15.6993858 C5.88155444,16.0123434 8.72681519,16.2075806 11.5602513,16.2062668 C14.3934247,16.2075806 17.2389483,16.0126062 20.0500491,15.6993858 C21.2372386,15.5677386 22.2234099,14.6819449 22.5008938,13.4821425 C22.8953098,11.7723058 22.8982003,9.90638441 22.8982003,8.1460961 C22.8982003,6.3858078 22.9003024,4.51962366 22.5056237,2.81004973 M15.42742,8.66821774 L10.0827023,11.5578864 C9.55138374,11.8453555 9.11650134,11.5860027 9.11650134,10.9821599 L9.11650134,5.30976949 C9.11650134,4.70566398 9.55112097,4.44631116 10.0827023,4.73378024 L15.42742,7.62371169 C15.9590013,7.91065524 15.9590013,8.38101142 15.42742,8.66821774" id="Shape"></path>
            </g>
        </g>
    </g>
</svg>